<svg xmlns="http://www.w3.org/2000/svg" width="300" height="300" viewBox="0 0 79.378 79.378"><rect width="79.378" height="79.378" ry="0" style="fill:#0e8420"/><path d="M39.69 15.999a23.813 23.813 0 0 0-18.705 9.089l2.99 1.72A20.412 20.412 0 0 1 39.69 19.4a20.412 20.412 0 0 1 15.727 7.402l2.977-1.714a23.813 23.813 0 0 0-18.704-9.09Zm0 10.082A13.608 13.608 0 0 0 26.08 39.69a13.608 13.608 0 0 0 13.61 13.607 13.608 13.608 0 0 0 13.608-13.608A13.608 13.608 0 0 0 39.69 26.081Zm-22.11 4.894a23.813 23.813 0 0 0-1.704 8.837A23.813 23.813 0 0 0 36.287 63.38v-3.446a20.412 20.412 0 0 1-17.01-20.122 20.412 20.412 0 0 1 1.293-7.11zm44.218 0-2.98 1.72a20.412 20.412 0 0 1 1.283 7.117 20.412 20.412 0 0 1-17.01 20.126v3.442a23.813 23.813 0 0 0 20.411-23.568 23.813 23.813 0 0 0-1.704-8.837Z" style="fill:#fff"/></svg>