<svg xmlns="http://www.w3.org/2000/svg" id="Layer_1" width="1048.9" height="400" data-name="Layer 1" version="1.1"><defs id="defs1"><style id="style1">.cls-3{fill:#fff}</style></defs><path id="rect18" d="M0 0h254.06v400H0z" style="fill:#0e8420;fill-opacity:1"/><g id="layer1" style="display:inline;fill:#fff;fill-opacity:1" transform="matrix(8.75 0 0 8.75 -747.97 -1915)"><path id="path7742-3" d="M100 242a6 6 0 1 0 0 12 6 6 0 0 0 0-12z" style="display:inline;opacity:1;fill:#fff;fill-opacity:1;stroke:none;stroke-width:3;stroke-linecap:round;stroke-linejoin:round;stroke-miterlimit:4;stroke-dasharray:none;stroke-dashoffset:0;stroke-opacity:1"/></g><path id="rect19" d="M30.25 169.38h193.57v193.57H30.25z" style="fill:none"/><text xml:space="preserve" id="text21" x="311.253" y="346.633" style="font-size:257.271px;font-family:&quot;Ubuntu Sans&quot;;-inkscape-font-specification:&quot;Ubuntu Sans&quot;;fill:#fff;fill-opacity:1;stroke-width:2.6799"><tspan id="tspan21" x="311.253" y="346.633" style="font-style:normal;font-variant:normal;font-weight:300;font-stretch:normal;font-family:&quot;Ubuntu Sans&quot;;-inkscape-font-specification:&quot;Ubuntu Sans Light&quot;;fill:#fff;fill-opacity:1;stroke-width:2.6799">Soyuz</tspan></text><text xml:space="preserve" id="text22" x="324.91" y="100.824" style="font-style:normal;font-variant:normal;font-weight:300;font-stretch:normal;font-size:78.3818px;font-family:&quot;Ubuntu Sans&quot;;-inkscape-font-specification:&quot;Ubuntu Sans Light&quot;;fill:#fff;stroke-width:.816478;fill-opacity:1;opacity:.8"><tspan id="tspan22" x="324.91" y="100.824" style="font-style:normal;font-variant:normal;font-weight:400;font-stretch:normal;font-family:&quot;Ubuntu Sans&quot;;-inkscape-font-specification:&quot;Ubuntu Sans&quot;;fill:#fff;fill-opacity:1;stroke-width:.816478">Built on Ubuntu</tspan></text><path id="path1-6" d="M127.03 165a90.368 90.368 0 0 0-71.8 35.87l15.532 8.968a72.294 72.294 0 0 1 56.268-27.133 72.294 72.294 0 0 1 56.381 27.066l15.42-8.9A90.368 90.368 0 0 0 127.03 165Zm-83.16 55.398a90.368 90.368 0 0 0-7.208 34.968 90.368 90.368 0 0 0 79.072 89.56v-18.587a72.294 72.294 0 0 1-60.998-71.34 72.294 72.294 0 0 1 4.853-25.525Zm166.32.002-15.573 8.991a72.294 72.294 0 0 1 4.707 25.608 72.294 72.294 0 0 1-60.998 71.34V345a90.368 90.368 0 0 0 79.072-89.632 90.368 90.368 0 0 0-7.208-34.968z" style="fill:#fff;fill-opacity:1;stroke-width:.488977"/></svg>