<svg xmlns="http://www.w3.org/2000/svg" id="Layer_1" width="300" height="300" data-name="Layer 1" version="1.1"><defs id="defs1"><style id="style1">.cls-3{fill:#fff}</style></defs><rect id="rect1" width="300" height="300" x="0" y="0" ry="0" style="opacity:1;fill:#0e8420;fill-opacity:1;stroke:none;stroke-width:1.90796"/><g id="layer1" style="display:inline;fill:#fff;fill-opacity:1;stroke:none" transform="matrix(8.75 0 0 8.75 -725 -2020)"><path id="path7742-3" d="M100 237.714a10.328 10.328 0 0 0-8.206 4.1l1.775 1.025a8.262 8.262 0 0 1 6.43-3.101 8.262 8.262 0 0 1 6.444 3.093l1.763-1.017a10.328 10.328 0 0 0-8.206-4.1zm0 4.286a6 6 0 0 0 0 12 6 6 0 0 0 0-12zm-9.504 2.046a10.328 10.328 0 0 0-.824 3.996 10.328 10.328 0 0 0 9.037 10.235v-2.124A8.262 8.262 0 0 1 91.738 248a8.262 8.262 0 0 1 .555-2.917zm19.008 0-1.78 1.027a8.262 8.262 0 0 1 .538 2.927 8.262 8.262 0 0 1-6.971 8.153v2.133a10.328 10.328 0 0 0 9.037-10.244 10.328 10.328 0 0 0-.824-3.996z" style="display:inline;opacity:1;fill:#fff;fill-opacity:1;stroke:none;stroke-width:3;stroke-linecap:round;stroke-linejoin:round;stroke-miterlimit:4;stroke-dasharray:none;stroke-dashoffset:0;stroke-opacity:1"/></g></svg>