<svg xmlns="http://www.w3.org/2000/svg" id="Layer_1" width="1048.9" height="400" data-name="Layer 1" version="1.1"><defs id="defs1"><style id="style1">.cls-3{fill:#fff}</style></defs><path id="rect1" d="M0 0h1048.9v400H0z" style="fill:#fff;fill-opacity:1;stroke-width:2.19693"/><text xml:space="preserve" id="text21" x="311.253" y="346.633" style="font-size:257.271px;font-family:&quot;Ubuntu Sans&quot;;-inkscape-font-specification:&quot;Ubuntu Sans&quot;;fill:#000;fill-opacity:1;stroke-width:2.6799"><tspan id="tspan21" x="311.253" y="346.633" style="font-style:normal;font-variant:normal;font-weight:300;font-stretch:normal;font-family:&quot;Ubuntu Sans&quot;;-inkscape-font-specification:&quot;Ubuntu Sans Light&quot;;fill:#000;fill-opacity:1;stroke-width:2.6799">Soyuz</tspan></text><path id="rect18" d="M0 0h254.06v400H0z" style="fill:#0e8420;fill-opacity:1"/><path id="rect19" d="M30.25 169.38h193.57v193.57H30.25z" style="fill:none"/><path id="path27197" d="M126.662 165a90 90 0 0 0-70.69 34.353l11.301 6.504a77.143 77.143 0 0 1 59.389-28 77.143 77.143 0 0 1 59.44 27.974l11.25-6.478A90 90 0 0 0 126.661 165Zm0 38.107a51.429 51.429 0 0 0-51.429 51.428 51.429 51.429 0 0 0 51.429 51.429 51.429 51.429 0 0 0 51.429-51.429 51.429 51.429 0 0 0-51.429-51.428Zm-83.559 18.495A90 90 0 0 0 36.662 255a90 90 0 0 0 77.143 89.07v-13.02A77.143 77.143 0 0 1 49.519 255a77.143 77.143 0 0 1 4.884-26.87zm167.118 0-11.263 6.503A77.143 77.143 0 0 1 203.805 255a77.143 77.143 0 0 1-64.286 76.063v13.008A90 90 0 0 0 216.662 255a90 90 0 0 0-6.441-33.398z" style="fill:#fff;stroke:none;stroke-width:226.231;stroke-dasharray:none"/></svg>