<svg xmlns="http://www.w3.org/2000/svg" width="32" height="32" viewBox="0 0 8.467 8.467"><g style="display:inline"><path d="M5.027 301.987v-.815a3.175 3.175 0 0 0 2.381-3.074 3.175 3.175 0 0 0-.123-.845l.706-.408a3.969 3.969 0 0 1 .211 1.253 3.969 3.969 0 0 1-3.175 3.889zm-1.587-.01A3.969 3.969 0 0 1 .265 298.1a3.969 3.969 0 0 1 .21-1.253l.706.407a3.175 3.175 0 0 0-.123.846 3.175 3.175 0 0 0 2.382 3.064zm-1.47-6.101-.705-.407a3.969 3.969 0 0 1 2.968-1.339 3.969 3.969 0 0 1 2.968 1.338l-.704.408a3.175 3.175 0 0 0-2.264-.952 3.175 3.175 0 0 0-2.263.952z" style="opacity:1;fill:#fff;fill-opacity:1;stroke-width:.395124" transform="translate(0 -293.825)"/></g></svg>