<svg xmlns="http://www.w3.org/2000/svg" width="32" height="32" viewBox="0 0 8.467 8.467"><path d="M3.704 7.9A3.704 3.704 0 0 1 .53 4.233a3.704 3.704 0 0 1 .265-1.375l.465.269a3.175 3.175 0 0 0-.2 1.106 3.175 3.175 0 0 0 2.645 3.13Zm1.059 0v-.536a3.175 3.175 0 0 0 2.646-3.13 3.175 3.175 0 0 0-.2-1.107l.464-.268a3.704 3.704 0 0 1 .265 1.375 3.704 3.704 0 0 1-3.175 3.665ZM1.789 2.21l-.465-.267A3.704 3.704 0 0 1 4.234.529a3.704 3.704 0 0 1 2.909 1.414l-.463.267a3.175 3.175 0 0 0-2.446-1.152 3.175 3.175 0 0 0-2.445 1.153Z" style="fill:#fff;stroke:none;stroke-width:9.31144;stroke-dasharray:none"/></svg>